<svg width="15" height="15" viewBox="0 0 15 15" fill="none" xmlns="http://www.w3.org/2000/svg">
<path d="M7.08333 0C3.17333 0 0 3.17333 0 7.08333C0 10.9933 3.17333 14.1667 7.08333 14.1667H10.625V12.75H7.08333C4.00917 12.75 1.41667 10.1575 1.41667 7.08333C1.41667 4.00917 4.00917 1.41667 7.08333 1.41667C10.1575 1.41667 12.75 4.00917 12.75 7.08333V8.09625C12.75 8.65583 12.2471 9.20833 11.6875 9.20833C11.1279 9.20833 10.625 8.65583 10.625 8.09625V7.08333C10.625 5.12833 9.03833 3.54167 7.08333 3.54167C5.12833 3.54167 3.54167 5.12833 3.54167 7.08333C3.54167 9.03833 5.12833 10.625 7.08333 10.625C8.06083 10.625 8.95333 10.2283 9.59083 9.58375C10.0513 10.2142 10.8446 10.625 11.6875 10.625C13.0829 10.625 14.1667 9.49167 14.1667 8.09625V7.08333C14.1667 3.17333 10.9933 0 7.08333 0ZM7.08333 9.20833C5.9075 9.20833 4.95833 8.25917 4.95833 7.08333C4.95833 5.9075 5.9075 4.95833 7.08333 4.95833C8.25917 4.95833 9.20833 5.9075 9.20833 7.08333C9.20833 8.25917 8.25917 9.20833 7.08333 9.20833Z" fill="#696969"/>
</svg>
