<svg width="16" height="16" viewBox="0 0 16 16" fill="none" xmlns="http://www.w3.org/2000/svg">
<path d="M13.913 6.26092L8.00003 10.087L2.087 6.26092V0.347884C2.08292 0.159863 2.23204 0.00415768 2.42006 8.16103e-05C2.42498 -1.62153e-05 2.42991 -1.62153e-05 2.43483 8.16103e-05H13.5652C13.7532 -0.00399446 13.909 0.145124 13.913 0.333145C13.9131 0.338069 13.9131 0.342993 13.913 0.347917V6.26092Z" fill="#E2D029"/>
<path d="M2.08695 6.26097L0 4.86966L2.08695 2.78271V6.26097Z" fill="#456CF6"/>
<path d="M16 4.86966L13.9131 6.26097V2.78271L16 4.86966Z" fill="#456CF6"/>
<path d="M13.9131 6.22963L16 4.86963V14.6087C15.9994 14.9777 15.8531 15.3314 15.5931 15.5931L13.2174 13.2174L9.39135 9.39136L9.29395 9.24178L13.9131 6.22963Z" fill="#4991FE"/>
<path d="M13.2174 13.2173L15.593 15.593C15.3313 15.853 14.9776 15.9993 14.6087 15.9999H1.39134C1.0224 15.9993 0.668666 15.853 0.406982 15.593L2.78261 13.2173L6.60867 9.39127L6.70607 9.2417L7.99998 10.0869L9.29389 9.2417L9.39129 9.39127L13.2174 13.2173Z" fill="#456CF6"/>
<path d="M6.70604 9.24178L6.60864 9.39136L2.78258 13.2174L0.406955 15.593C0.146901 15.3314 0.000652171 14.9776 0 14.6087V4.86963L6.70604 9.24178Z" fill="#4991FE"/>
</svg>
