<svg width="56" height="56" viewBox="0 0 56 56" fill="none" xmlns="http://www.w3.org/2000/svg">
<rect x="56" y="56" width="56" height="56" rx="28" transform="rotate(-180 56 56)" fill="#0F68EE" fill-opacity="0.1"/>
<g clip-path="url(#clip0_1829_51776)">
<path d="M35.916 27.1668H25.916C25.2268 27.1668 24.666 26.606 24.666 25.9168V20.0835C24.666 19.3943 25.2268 18.8335 25.916 18.8335H35.916C36.6052 18.8335 37.166 19.3943 37.166 20.0835V25.9168C37.166 26.606 36.6052 27.1668 35.916 27.1668ZM25.916 19.6668C25.686 19.6668 25.4993 19.8543 25.4993 20.0835V25.9168C25.4993 26.146 25.686 26.3335 25.916 26.3335H35.916C36.146 26.3335 36.3327 26.146 36.3327 25.9168V20.0835C36.3327 19.8543 36.146 19.6668 35.916 19.6668H25.916Z" fill="#0F68EE"/>
<path d="M30.9167 24.6666C29.9975 24.6666 29.25 23.9191 29.25 22.9999C29.25 22.0808 29.9975 21.3333 30.9167 21.3333C31.8358 21.3333 32.5833 22.0808 32.5833 22.9999C32.5833 23.9191 31.8358 24.6666 30.9167 24.6666ZM30.9167 22.1666C30.4575 22.1666 30.0833 22.5399 30.0833 22.9999C30.0833 23.4599 30.4575 23.8333 30.9167 23.8333C31.3758 23.8333 31.75 23.4599 31.75 22.9999C31.75 22.5399 31.3758 22.1666 30.9167 22.1666Z" fill="#0F68EE"/>
<path d="M27.584 23.4168H26.7507C26.5207 23.4168 26.334 23.2302 26.334 23.0002C26.334 22.7702 26.5207 22.5835 26.7507 22.5835H27.584C27.814 22.5835 28.0007 22.7702 28.0007 23.0002C28.0007 23.2302 27.814 23.4168 27.584 23.4168Z" fill="#0F68EE"/>
<path d="M35.084 23.4168H34.2507C34.0207 23.4168 33.834 23.2302 33.834 23.0002C33.834 22.7702 34.0207 22.5835 34.2507 22.5835H35.084C35.314 22.5835 35.5007 22.7702 35.5007 23.0002C35.5007 23.2302 35.314 23.4168 35.084 23.4168Z" fill="#0F68EE"/>
<path d="M20.9167 36.3333H18.4167C18.1867 36.3333 18 36.1467 18 35.9167V28.4167C18 28.1867 18.1867 28 18.4167 28C21.2508 28 22.7483 28.955 22.8108 28.9958C22.96 29.0933 23.0308 29.275 22.9875 29.4475L21.3208 36.0192C21.2733 36.2042 21.1075 36.3333 20.9167 36.3333ZM18.8333 35.5H20.5925L22.1 29.5583C21.6308 29.3342 20.5258 28.9033 18.8333 28.8408V35.5Z" fill="#0F68EE"/>
<path d="M28.8329 38.0002C26.8662 38.0002 23.0637 36.3468 20.9712 35.3602C20.7629 35.2627 20.6746 35.0135 20.7721 34.806C20.8696 34.5968 21.1187 34.5093 21.3271 34.6068C22.9604 35.3768 26.9604 37.1668 28.8329 37.1668C30.8596 37.1668 35.6371 34.786 37.0112 34.0785C36.7946 33.7952 36.3471 33.4168 35.4996 33.4168C34.7304 33.4168 33.7554 33.7243 32.8121 34.0227C31.8096 34.3385 30.7721 34.6668 29.8746 34.6668C28.1546 34.6668 25.8704 33.8435 25.7737 33.8085C25.5579 33.7302 25.4462 33.491 25.5246 33.2743C25.6029 33.0585 25.8412 32.946 26.0587 33.0252C26.0804 33.0335 28.3021 33.8335 29.8746 33.8335C30.6437 33.8335 31.6187 33.526 32.5621 33.2277C33.5646 32.9118 34.6021 32.5835 35.4996 32.5835C37.4437 32.5835 37.9571 34.056 37.9779 34.1185C38.0421 34.311 37.9587 34.5218 37.7787 34.6185C37.5196 34.7552 31.4071 38.0002 28.8329 38.0002Z" fill="#0F68EE"/>
<path d="M31.7499 34.325C31.5199 34.325 31.3333 34.1383 31.3333 33.9083V33.4916C31.3333 32.91 30.9416 32.4116 30.3799 32.2816L22.3349 30.3391C22.1108 30.285 21.9733 30.06 22.0274 29.8358C22.0808 29.6108 22.3099 29.48 22.5299 29.5283L30.5716 31.47C31.5099 31.6891 32.1666 32.5208 32.1666 33.4916V33.9083C32.1666 34.1383 31.9799 34.325 31.7499 34.325Z" fill="#0F68EE"/>
</g>
<defs>
<clipPath id="clip0_1829_51776">
<rect width="20" height="20" fill="white" transform="translate(18 18)"/>
</clipPath>
</defs>
</svg>
