<svg width="16" height="16" viewBox="0 0 16 16" fill="none" xmlns="http://www.w3.org/2000/svg">
<path d="M5.168 0H1.76533C0.790367 0 0 0.790367 0 1.76533V5.168C0 6.14297 0.790367 6.93333 1.76533 6.93333H5.168C6.14297 6.93333 6.93333 6.14297 6.93333 5.168V1.76533C6.93333 0.790367 6.14297 0 5.168 0Z" fill="#4A4A4A"/>
<path d="M14.2347 0H10.832C9.85702 0 9.06665 0.790367 9.06665 1.76533V5.168C9.06665 6.14297 9.85702 6.93333 10.832 6.93333H14.2347C15.2096 6.93333 16 6.14297 16 5.168V1.76533C16 0.790367 15.2096 0 14.2347 0Z" fill="#4A4A4A"/>
<path d="M5.168 9.06665H1.76533C0.790367 9.06665 0 9.85702 0 10.832V14.2347C0 15.2096 0.790367 16 1.76533 16H5.168C6.14297 16 6.93333 15.2096 6.93333 14.2347V10.832C6.93333 9.85702 6.14297 9.06665 5.168 9.06665Z" fill="#4A4A4A"/>
<path d="M12.5333 16C14.4479 16 16 14.4479 16 12.5333C16 10.6187 14.4479 9.06665 12.5333 9.06665C10.6187 9.06665 9.06665 10.6187 9.06665 12.5333C9.06665 14.4479 10.6187 16 12.5333 16Z" fill="#4A4A4A"/>
</svg>
