<svg width="290" height="204" viewBox="0 0 290 204" fill="none" xmlns="http://www.w3.org/2000/svg">
<path d="M144.758 204.002C224.706 204.002 289.516 181.058 289.516 152.755C289.516 124.452 224.706 101.508 144.758 101.508C64.8104 101.508 0 124.452 0 152.755C0 181.058 64.8104 204.002 144.758 204.002Z" fill="url(#paint0_linear_702_11479)"/>
<path d="M238.284 78.544C238.247 78.2793 238.158 78.0246 238.022 77.7946C237.886 77.5647 237.706 77.3642 237.491 77.2049C237.277 77.0455 237.032 76.9304 236.773 76.8664C236.514 76.8024 236.244 76.7907 235.98 76.8321C235.716 76.8734 235.463 76.9668 235.235 77.107C235.008 77.2472 234.811 77.4314 234.655 77.6486C234.5 77.8659 234.389 78.112 234.329 78.3725C234.27 78.633 234.263 78.9028 234.309 79.166C234.598 81.04 234.965 86.909 232.94 89.266C232.526 89.7646 231.946 90.0978 231.307 90.205L231.492 79.026C231.501 78.6379 231.431 78.252 231.288 77.8911C231.145 77.5302 230.931 77.2016 230.659 76.9246C230.387 76.6477 230.062 76.4281 229.704 76.2787C229.346 76.1293 228.961 76.0531 228.573 76.0547C228.185 76.0563 227.801 76.1356 227.443 76.288C227.086 76.4403 226.763 76.6627 226.494 76.9419C226.224 77.221 226.013 77.5513 225.873 77.9134C225.733 78.2755 225.666 78.662 225.678 79.05L226.204 100.265C225.54 100.17 224.934 99.8324 224.504 99.317C222.479 96.955 222.846 91.086 223.135 89.217C223.217 88.69 223.087 88.1519 222.773 87.7209C222.459 87.29 221.986 87.0015 221.459 86.919C220.932 86.8365 220.394 86.9668 219.963 87.2811C219.532 87.5954 219.243 88.068 219.161 88.595C219.016 89.518 217.853 97.737 221.446 101.935C222.05 102.645 222.793 103.223 223.629 103.634C224.465 104.045 225.376 104.28 226.307 104.324L226.536 113.558H230.926L231.245 94.265C232.158 94.2084 233.05 93.9682 233.867 93.5589C234.685 93.1496 235.412 92.5796 236.004 91.883C239.591 87.686 238.429 79.468 238.284 78.544Z" fill="url(#paint1_linear_702_11479)"/>
<path d="M50.8564 96.5294C50.8033 96.1934 50.6191 95.8922 50.3439 95.6921C50.0688 95.492 49.7255 95.4094 49.3895 95.4624C49.0534 95.5155 48.7522 95.6998 48.5521 95.9749C48.352 96.25 48.2694 96.5934 48.3225 96.9294C48.5065 98.1234 48.7404 101.865 47.4494 103.37C47.1855 103.689 46.8161 103.902 46.4084 103.97L46.5264 96.8444C46.5335 96.5959 46.4906 96.3486 46.4002 96.1171C46.3098 95.8856 46.1738 95.6746 46.0002 95.4967C45.8266 95.3188 45.619 95.1776 45.3897 95.0816C45.1605 94.9855 44.9143 94.9365 44.6657 94.9375C44.4172 94.9385 44.1713 94.9895 43.9428 95.0874C43.7144 95.1853 43.508 95.3282 43.3359 95.5075C43.1637 95.6868 43.0294 95.8988 42.9409 96.1311C42.8523 96.3633 42.8114 96.611 42.8205 96.8594L43.1555 110.383C42.7321 110.324 42.3456 110.111 42.0705 109.783C40.7795 108.278 41.0135 104.536 41.1975 103.342C41.2237 103.176 41.217 103.006 41.1776 102.842C41.1382 102.679 41.0668 102.524 40.9677 102.388C40.8686 102.252 40.7437 102.136 40.6 102.048C40.4564 101.96 40.2968 101.902 40.1304 101.875C39.9641 101.849 39.7941 101.856 39.6303 101.895C39.4665 101.935 39.3122 102.006 39.176 102.105C39.0397 102.204 38.9243 102.329 38.8364 102.473C38.7484 102.616 38.6897 102.776 38.6634 102.942C38.5714 103.53 37.8304 108.77 40.1204 111.442C40.5055 111.895 40.9793 112.263 41.5125 112.525C42.0457 112.787 42.627 112.937 43.2204 112.965L43.3664 118.851H46.1665L46.3664 106.551C46.9483 106.515 47.517 106.362 48.0383 106.101C48.5596 105.84 49.0229 105.477 49.4005 105.032C51.6895 102.357 50.9484 97.1174 50.8564 96.5294Z" fill="url(#paint2_linear_702_11479)"/>
<path d="M143.827 125.561C157.512 125.561 168.607 123.222 168.607 120.335C168.607 117.449 157.512 115.109 143.827 115.109C130.141 115.109 119.047 117.449 119.047 120.335C119.047 123.222 130.141 125.561 143.827 125.561Z" fill="#D8D8D8"/>
<path d="M122.398 10.5189C122.398 10.5189 124.545 13.7409 124.545 16.1569C124.528 17.7755 124.395 19.3906 124.145 20.9899L130.454 19.1099L129.378 9.71094L122.398 10.5189Z" fill="#F2957E"/>
<path d="M133.251 0.148848C131.672 -0.171406 130.031 0.0282093 128.574 0.717848C126.561 1.65785 125.89 2.86485 125.218 2.99985C124.546 3.13485 122.13 2.59985 122.13 3.13385C122.13 3.66785 122.265 5.14785 122.265 5.14785C122.265 5.14785 121.057 7.42985 120.52 8.63785C119.983 9.84585 121.728 10.9198 123.742 11.3228C125.312 11.521 126.905 11.4302 128.442 11.0548C128.482 13.3011 128.662 15.5427 128.979 17.7668C129.516 21.6598 130.455 37.4998 132.738 44.4798C135.021 51.4598 138.644 54.2798 141.732 54.4138C144.82 54.5478 143.477 49.9839 143.477 49.9839C144.836 51.7167 146.54 53.1485 148.481 54.1884C150.422 55.2283 152.558 55.8536 154.753 56.0248C162.002 56.4248 164.553 54.1449 163.479 50.6549C162.679 48.3614 161.344 46.2911 159.586 44.6148C159.586 44.6148 167.237 45.5549 166.969 39.5149C166.701 33.4748 157.972 29.4488 157.972 29.4488C157.972 29.4488 164.013 26.4958 162.133 22.4688C160.253 18.4418 151.663 18.8448 146.696 16.2938C141.729 13.7428 141.188 8.39385 139.849 5.55485C139.238 4.20813 138.324 3.02013 137.18 2.08273C136.036 1.14533 134.692 0.483642 133.251 0.148848Z" fill="#F6BA99"/>
<path d="M165.822 44.6837L165.843 44.5837C167.226 44.9317 169.843 45.5407 169.862 45.1567C169.888 44.6347 166.125 43.5987 166.125 43.5987L166.048 43.5897L166.065 43.5097C167.248 43.8167 170.465 44.6097 170.488 44.1867C170.514 43.6637 166.751 42.6287 166.751 42.6287L166.259 42.5717L166.366 42.0507C167.501 42.2737 169.49 42.6217 169.518 42.3347C169.557 41.9347 166.528 41.2647 166.528 41.2647L163.188 40.2547C163.188 40.2547 164.942 40.2057 165.888 40.0787C166.834 39.9517 165.821 39.4787 165.267 39.3937C164.713 39.3087 162.206 39.3787 162.206 39.3787L155.906 41.8627C155.906 41.8627 156.415 42.0997 158.806 43.2367C161.029 44.167 163.314 44.9416 165.644 45.5547C165.644 45.5547 167.366 46.0437 167.427 45.8627C167.501 45.6387 166.598 45.0997 165.822 44.6837Z" fill="#F2957E"/>
<path d="M162.208 39.377C162.208 39.377 151.908 36.989 145.803 34.036C138.85 30.672 131.337 24.729 129.542 23.383C127.747 22.037 125.355 22.072 123.785 24.763C122.215 27.454 125.169 29.551 127.411 31.009C129.653 32.467 145.69 39.42 149.951 40.878C154.212 42.336 162.623 44.691 162.623 44.691L162.208 39.377Z" fill="#F2957E"/>
<path d="M157.971 29.4489C157.971 29.4489 164.013 26.4959 162.133 22.4689C160.253 18.4419 151.662 18.8449 146.695 16.2939C141.728 13.7429 141.188 8.39387 139.849 5.55487C139.241 4.22169 138.338 3.04422 137.208 2.1116C136.078 1.17899 134.751 0.515672 133.327 0.171875L132.467 0.588875C132.918 0.976061 133.239 1.4942 133.383 2.0715C133.527 2.6488 133.488 3.25667 133.272 3.81087C132.508 5.22214 131.456 6.4569 130.184 7.43487C130.184 7.43487 132.197 7.97187 131.66 9.17987C131.123 10.3879 128.438 11.0599 128.438 11.0599C128.478 13.3061 128.657 15.5478 128.975 17.7719C129.512 21.6649 130.451 37.5049 132.734 44.4849C135.017 51.4649 138.64 54.2849 141.728 54.4189C144.816 54.5529 143.473 49.9889 143.473 49.9889C144.831 51.7214 146.535 53.1528 148.476 54.1923C150.417 55.2318 152.553 55.8569 154.749 56.0279C161.998 56.4279 164.549 54.1479 163.475 50.6579C162.674 48.3644 161.34 46.2942 159.582 44.6179C159.582 44.6179 167.233 45.5579 166.965 39.5179C166.697 33.4779 157.971 29.4489 157.971 29.4489Z" fill="#333333"/>
<path d="M147.059 83.6593C147.059 83.6593 161.832 79.8243 164.902 78.8593C167.972 77.8943 169.65 82.4413 169.65 82.4413C169.65 82.4413 170.735 90.4583 172.63 88.8053C174.525 87.1523 173.73 81.5473 172.379 78.2473C171.028 74.9473 171.623 72.1363 169.279 72.0793C167.248 72.0303 166.698 73.4723 163.279 74.3603C159.86 75.2483 150.541 74.3943 150.034 74.3603C149.527 74.3263 147.059 83.6593 147.059 83.6593Z" fill="#F6BA99"/>
<path d="M172.385 78.2516C171.031 74.9516 171.629 72.1406 169.285 72.0836C168.699 72.0665 168.119 72.1935 167.594 72.4536C168.31 73.1848 168.951 73.9869 169.505 74.8476C170.705 76.8599 171.357 79.1517 171.396 81.4946L169.651 82.4456C169.838 83.7612 170.108 85.0637 170.459 86.3456C170.503 86.5009 170.55 86.6539 170.599 86.8046C170.619 86.8666 170.639 86.9286 170.66 86.9886C170.713 87.1436 170.768 87.2946 170.824 87.4396C170.851 87.5096 170.878 87.5756 170.906 87.6396C171.033 87.9603 171.198 88.265 171.396 88.5476C171.521 88.7336 171.693 88.8825 171.896 88.9786C171.968 89.0104 172.045 89.0281 172.124 89.0306C172.243 89.028 172.359 88.9934 172.46 88.9306C172.522 88.8939 172.581 88.8514 172.635 88.8036C172.881 88.5806 173.082 88.3111 173.224 88.0106C173.389 87.6636 173.511 87.2975 173.586 86.9206C173.674 86.4875 173.727 86.0481 173.745 85.6066C173.783 83.089 173.321 80.589 172.385 78.2516Z" fill="#0053B8"/>
<path d="M133.302 91.6703C133.302 91.6703 136.355 100.346 136.355 105.97C136.355 111.594 135.23 113.039 134.748 114.807C134.266 116.575 129.125 120.591 129.125 121.876C129.125 123.161 132.338 122.197 134.425 120.912C136.512 119.627 142.94 116.412 143.425 114.646C143.91 112.88 141.135 112.989 141.135 110.901C141.135 108.813 143.265 97.6163 142.943 93.2793C142.821 90.995 142.444 88.7315 141.818 86.5312L133.302 91.6703Z" fill="#F6BA99"/>
<path d="M143.425 114.646C143.677 113.723 143.04 113.311 142.375 112.832C140.391 114.711 138.147 116.296 135.713 117.538L133.991 116.081C133.168 117.124 131.858 118.395 130.803 119.514L130.756 119.564C130.678 119.647 130.602 119.728 130.528 119.809C130.454 119.889 130.382 119.968 130.313 120.046L130.195 120.179C130.128 120.257 130.062 120.333 129.995 120.408L129.911 120.508C129.838 120.596 129.77 120.681 129.706 120.764L129.642 120.846C129.573 120.937 129.509 121.026 129.453 121.11L129.421 121.16C129.372 121.236 129.328 121.309 129.29 121.378C129.282 121.394 129.272 121.409 129.264 121.424C129.228 121.494 129.197 121.566 129.172 121.64C129.167 121.655 129.163 121.669 129.158 121.684C129.138 121.746 129.127 121.81 129.125 121.875C129.125 122.675 130.38 122.603 131.832 122.12C132.741 121.814 133.613 121.409 134.432 120.911C135.15 120.47 136.381 119.8 137.706 119.04L138.069 118.83C138.434 118.619 138.804 118.401 139.169 118.181C139.291 118.108 139.412 118.034 139.533 117.96C139.774 117.812 140.012 117.66 140.244 117.514C140.708 117.214 141.15 116.914 141.549 116.624C141.915 116.36 142.265 116.075 142.598 115.771C142.797 115.59 142.98 115.392 143.145 115.179C143.272 115.021 143.368 114.84 143.429 114.647L143.425 114.646Z" fill="#0053B8"/>
<path d="M131.796 20.0492C131.796 20.0492 131.396 17.2302 127.903 17.6332C124.41 18.0362 121.728 21.3922 119.849 24.0762C117.97 26.7602 114.613 28.2372 114.613 29.8482C114.613 31.4592 116.358 32.9362 116.358 32.9362C115.497 38.7124 115.093 44.5475 115.15 50.3872C115.419 58.3072 122.936 76.5632 124.815 82.8732C126.694 89.1832 128.977 95.4912 128.977 95.4912C128.977 95.4912 130.856 97.1022 142.132 88.7792C153.408 80.4562 161.194 69.5792 160.389 68.2412C159.584 66.9032 140.119 60.3212 135.42 54.8172C130.721 49.3132 130.588 49.1792 129.246 46.8972C128.142 45.1257 126.932 43.4226 125.622 41.7972C125.431 38.2445 125.933 34.6886 127.098 31.3272C128.978 26.6272 132.199 23.6732 131.796 20.0492Z" fill="#EDC13B"/>
<path d="M120.25 40.0541C122.868 39.8361 124.573 39.7371 125.592 39.6911C125.614 36.8388 126.121 34.011 127.092 31.3291C128.972 26.6291 132.192 23.6771 131.792 20.0531C131.792 20.0531 131.392 17.2341 127.899 17.6371C124.406 18.0401 121.724 21.3961 119.845 24.0801C117.966 26.7641 114.609 28.2411 114.609 29.8521C114.609 31.4631 116.354 32.9401 116.354 32.9401C116.354 32.9401 115.754 36.7851 115.393 41.6191C116.876 40.7428 118.535 40.2081 120.25 40.0541Z" fill="#DA5955"/>
<path d="M135.419 54.8191C130.719 49.3191 130.587 49.1811 129.244 46.8991C128.14 45.1276 126.93 43.4245 125.62 41.7991C121.501 41.2621 117.444 43.4111 115.198 44.8991C115.118 46.7251 115.089 48.5991 115.149 50.3861C115.418 58.3061 122.935 76.5621 124.814 82.8721C126.693 89.1821 128.976 95.4901 128.976 95.4901C128.976 95.4901 130.855 97.1011 142.131 88.7781C153.407 80.4551 161.193 69.5781 160.388 68.2401C159.583 66.9021 140.118 60.3231 135.419 54.8191Z" fill="#DA5955"/>
<path d="M171.76 43.5083L171.783 43.3943C173.327 43.7833 176.251 44.4633 176.272 44.0343C176.301 43.4513 172.098 42.2943 172.098 42.2943L172.012 42.2843L172.031 42.1953C173.352 42.5383 176.948 43.4263 176.971 42.9503C177 42.3673 172.797 41.2103 172.797 41.2103L172.247 41.1473L172.367 40.5653C173.634 40.8143 175.856 41.2033 175.887 40.8823C175.93 40.4323 172.548 39.6823 172.548 39.6823L168.818 38.5543C168.818 38.5543 170.778 38.5003 171.838 38.3543C172.898 38.2083 171.763 37.6833 171.144 37.5893C170.525 37.4953 167.725 37.5733 167.725 37.5733L160.688 40.3473C160.688 40.3473 161.255 40.6113 163.923 41.8813C166.406 42.9201 168.958 43.7848 171.56 44.4693C171.56 44.4693 173.483 45.0153 173.552 44.8143C173.635 44.5743 172.627 43.9723 171.76 43.5083Z" fill="#F6BA99"/>
<path d="M167.726 37.5827C167.726 37.5827 156.22 34.9157 149.403 31.6177C141.638 27.8597 133.247 21.2177 131.243 19.7177C129.239 18.2177 126.567 18.2537 124.813 21.2587C123.059 24.2637 126.359 26.6057 128.863 28.2337C131.367 29.8617 149.278 37.6267 154.037 39.2547C158.796 40.8827 168.189 43.5157 168.189 43.5157L167.726 37.5827Z" fill="#F6BA99"/>
<defs>
<linearGradient id="paint0_linear_702_11479" x1="144.758" y1="78.2417" x2="144.758" y2="158.802" gradientUnits="userSpaceOnUse">
<stop stop-color="#8D8D8D" stop-opacity="0.169"/>
<stop offset="0.588542" stop-color="#8D8D8D" stop-opacity="0.04"/>
<stop offset="1" stop-color="#8D8D8D" stop-opacity="0"/>
</linearGradient>
<linearGradient id="paint1_linear_702_11479" x1="228.723" y1="76.0547" x2="228.723" y2="113.558" gradientUnits="userSpaceOnUse">
<stop stop-color="#07A800"/>
<stop offset="1" stop-color="#088600"/>
</linearGradient>
<linearGradient id="paint2_linear_702_11479" x1="44.7599" y1="94.9375" x2="44.7599" y2="118.851" gradientUnits="userSpaceOnUse">
<stop stop-color="#07A800"/>
<stop offset="1" stop-color="#088600"/>
</linearGradient>
</defs>
</svg>
