<svg xmlns="http://www.w3.org/2000/svg" width="22.585" height="20.558" viewBox="0 0 22.585 20.558">
  <path id="hide" d="M17.117,16.2l-1.129-1.129a2.546,2.546,0,0,0-.693-3.029,2.742,2.742,0,0,0-2.952-.616l-1.129-1.129a3.1,3.1,0,0,1,.975-.411,4.748,4.748,0,0,1,1.1-.128,4.338,4.338,0,0,1,4.363,4.363,4.488,4.488,0,0,1-.141,1.116,3.39,3.39,0,0,1-.4.962Zm3.311,3.311L19.4,18.481A12.037,12.037,0,0,0,21.6,16.415a8.247,8.247,0,0,0,1.373-2.3,10.245,10.245,0,0,0-3.85-4.5,10.078,10.078,0,0,0-5.569-1.655,12.326,12.326,0,0,0-2.207.205,8.184,8.184,0,0,0-1.771.488L8.391,7.445a11.637,11.637,0,0,1,2.3-.719,12.691,12.691,0,0,1,2.733-.308A11.587,11.587,0,0,1,20.133,8.51a12.128,12.128,0,0,1,4.453,5.608,12.679,12.679,0,0,1-1.72,3A12.4,12.4,0,0,1,20.428,19.508Zm1.489,5.8L17.6,21.073a9.971,9.971,0,0,1-2.028.552,13.569,13.569,0,0,1-2.284.192,11.767,11.767,0,0,1-6.8-2.092A12.26,12.26,0,0,1,2,14.118a11.646,11.646,0,0,1,1.424-2.605,14.589,14.589,0,0,1,2.22-2.425L2.411,5.854l1.078-1.1L22.917,24.179ZM6.7,10.165a9.445,9.445,0,0,0-1.835,1.822,8.448,8.448,0,0,0-1.27,2.13,10.278,10.278,0,0,0,3.94,4.5A10.968,10.968,0,0,0,13.5,20.278a13.437,13.437,0,0,0,1.668-.1,3.986,3.986,0,0,0,1.232-.308l-1.643-1.643a2.687,2.687,0,0,1-.693.192,5,5,0,0,1-.77.064,4.244,4.244,0,0,1-3.08-1.258A4.176,4.176,0,0,1,8.93,14.118a4.676,4.676,0,0,1,.064-.77,3.143,3.143,0,0,1,.192-.693ZM14.525,13.81ZM11.547,15.3Z" transform="translate(-2 -4.75)" fill="#696969"/>
</svg>
