<svg width="20" height="17" viewBox="0 0 20 17" fill="none" xmlns="http://www.w3.org/2000/svg">
<path d="M0.319675 7.54221L7.54238 0.319347C7.74856 0.11317 8.02335 0 8.31636 0C8.60969 0 8.88432 0.113332 9.0905 0.319347L9.74626 0.975276C9.95228 1.18113 10.0658 1.45609 10.0658 1.74925C10.0658 2.04226 9.95228 2.32648 9.74626 2.53234L5.53264 6.75523H18.9195C19.5231 6.75523 20 7.22774 20 7.83148V8.75879C20 9.36252 19.5231 9.88268 18.9195 9.88268H5.48484L9.7461 14.1291C9.95212 14.3353 10.0656 14.6028 10.0656 14.896C10.0656 15.1888 9.95212 15.4602 9.7461 15.6662L9.09033 16.32C8.88416 16.5262 8.60952 16.6386 8.31619 16.6386C8.02319 16.6386 7.74839 16.5247 7.54222 16.3186L0.319511 9.09586C0.112846 8.88903 -0.000810623 8.61294 3.8147e-06 8.31944C-0.000646591 8.02497 0.112846 7.74872 0.319675 7.54221Z" fill="#0A9437"/>
</svg>
