<svg width="16" height="13" viewBox="0 0 16 13" fill="none" xmlns="http://www.w3.org/2000/svg">
<path d="M4.41422 0H1.08578C0.487062 0 0 0.487063 0 1.08578V4.41422C0 5.01294 0.487062 5.5 1.08578 5.5H4.41422C5.01294 5.5 5.5 5.01294 5.5 4.41422V1.08578C5.5 0.487063 5.01294 0 4.41422 0Z" fill="#4A4A4A"/>
<path d="M15.5 2.5H7.5C7.22387 2.5 7 2.27613 7 2C7 1.72387 7.22387 1.5 7.5 1.5H15.5C15.7761 1.5 16 1.72387 16 2C16 2.27613 15.7761 2.5 15.5 2.5Z" fill="#4A4A4A"/>
<path d="M12.75 4.375H7.5C7.22387 4.375 7 4.15113 7 3.875C7 3.59887 7.22387 3.375 7.5 3.375H12.75C13.0261 3.375 13.25 3.59887 13.25 3.875C13.25 4.15113 13.0261 4.375 12.75 4.375Z" fill="#4A4A4A"/>
<path d="M4.41422 7.25H1.08578C0.487062 7.25 0 7.73706 0 8.33578V11.6642C0 12.2629 0.487062 12.75 1.08578 12.75H4.41422C5.01294 12.75 5.5 12.2629 5.5 11.6642V8.33578C5.5 7.73706 5.01294 7.25 4.41422 7.25Z" fill="#4A4A4A"/>
<path d="M15.5 9.625H7.5C7.22387 9.625 7 9.40113 7 9.125C7 8.84887 7.22387 8.625 7.5 8.625H15.5C15.7761 8.625 16 8.84887 16 9.125C16 9.40113 15.7761 9.625 15.5 9.625Z" fill="#4A4A4A"/>
<path d="M12.75 11.625H7.5C7.22387 11.625 7 11.4011 7 11.125C7 10.8489 7.22387 10.625 7.5 10.625H12.75C13.0261 10.625 13.25 10.8489 13.25 11.125C13.25 11.4011 13.0261 11.625 12.75 11.625Z" fill="#4A4A4A"/>
</svg>
