<svg width="56" height="56" viewBox="0 0 56 56" fill="none" xmlns="http://www.w3.org/2000/svg">
<rect x="56" y="56" width="56" height="56" rx="28" transform="rotate(-180 56 56)" fill="#0F68EE" fill-opacity="0.1"/>
<g clip-path="url(#clip0_1829_51793)">
<path d="M37.4116 17.7119C37.3606 17.7098 37.3094 17.7094 37.2583 17.7109H35.3306V16.0542C35.3306 15.3916 34.6981 15 34.0354 15H32.2583C31.5957 15 31.1137 15.3916 31.1137 16.0542V17.7108H23.8848V16.0542C23.8848 15.3916 23.4029 15 22.7402 15H20.9631C20.3005 15 19.6679 15.3916 19.6679 16.0542V17.7108H17.7403C16.5097 17.6765 15.4844 18.6463 15.4501 19.8768C15.4487 19.9278 15.449 19.979 15.4511 20.0301V37.4397C15.4511 38.765 16.4149 39.9999 17.7402 39.9999H37.2583C38.5837 39.9999 39.5475 38.765 39.5475 37.4397V20.0301C39.5979 18.8002 38.6416 17.7622 37.4116 17.7119ZM32.2583 16.2048H34.1258V19.518H32.2583V16.2048ZM20.9632 16.2048H22.6801V19.518H20.9632V16.2048ZM38.3427 37.4397C38.3427 38.1024 37.921 38.7951 37.2583 38.7951H17.7403C17.0776 38.7951 16.656 38.1024 16.656 37.4397V24.6386H38.3427V37.4397ZM38.3427 20.0301V23.4337H16.6559V20.0301C16.6049 19.4669 17.0201 18.9689 17.5834 18.9178C17.6355 18.9131 17.688 18.9124 17.7402 18.9157H19.6679V19.5784C19.6679 20.241 20.3005 20.7229 20.9631 20.7229H22.7402C23.3555 20.7398 23.8679 20.2547 23.8848 19.6394C23.8854 19.6191 23.8854 19.5987 23.8848 19.5784V18.9156H31.1137V19.5783C31.0969 20.1936 31.582 20.706 32.1973 20.7229C32.2176 20.7234 32.238 20.7234 32.2583 20.7229H34.0355C34.6981 20.7229 35.3306 20.241 35.3306 19.5783V18.9156H37.2583C37.8228 18.8801 38.3092 19.3088 38.3448 19.8733C38.3481 19.9255 38.3474 19.978 38.3427 20.0301Z" fill="#0F68EE"/>
<path d="M24.1563 32.8616L23.6141 35.8736C23.5927 36.0028 23.6139 36.1355 23.6746 36.2516C23.8288 36.5463 24.1928 36.6603 24.4876 36.5061L27.1984 35.0905L29.9093 36.5061L30.1803 36.5664C30.311 36.5687 30.4386 36.5261 30.5418 36.4459C30.7218 36.3144 30.8145 36.0942 30.7828 35.8735L30.2406 32.8615L32.4394 30.7531C32.5967 30.5831 32.6538 30.3432 32.59 30.1206C32.5089 29.9148 32.3261 29.7663 32.1081 29.729L29.096 29.2772L27.7406 26.5362C27.6815 26.4142 27.583 26.3157 27.4611 26.2567C27.1616 26.1117 26.8013 26.2368 26.6563 26.5362L25.3009 29.2772L22.2888 29.729C22.0708 29.7662 21.888 29.9148 21.8069 30.1206C21.7431 30.3432 21.8002 30.5831 21.9575 30.7531L24.1563 32.8616ZM25.8129 30.4218C26.0021 30.3935 26.1624 30.2676 26.2346 30.0905L27.1984 28.1628L28.1623 30.0905C28.2346 30.2676 28.3948 30.3935 28.5839 30.4218L30.7225 30.723L29.1864 32.1989C29.0433 32.3405 28.9762 32.5419 29.0056 32.7411L29.367 34.8796L27.4695 33.8555L27.1984 33.7953L26.9273 33.8555L25.0297 34.8796L25.3912 32.7411C25.4207 32.5419 25.3535 32.3405 25.2104 32.1989L23.6743 30.723L25.8129 30.4218Z" fill="#0F68EE"/>
</g>
<defs>
<clipPath id="clip0_1829_51793">
<rect width="25" height="25" fill="white" transform="translate(15 15)"/>
</clipPath>
</defs>
</svg>
