<svg width="56" height="56" viewBox="0 0 56 56" fill="none" xmlns="http://www.w3.org/2000/svg">
<rect x="56" y="56" width="56" height="56" rx="28" transform="rotate(-180 56 56)" fill="#0F68EE" fill-opacity="0.1"/>
<g clip-path="url(#clip0_1829_51577)">
<path d="M27.9921 37.5885C27.9921 37.8601 27.7712 38.0806 27.5 38.0806C27.2288 38.0806 27.0079 37.8601 27.0079 37.5885C27.0079 37.3173 27.2288 37.0964 27.5 37.0964C27.7712 37.0964 27.9921 37.3173 27.9921 37.5885ZM18.9186 25.4822C18.6468 25.4822 18.4265 25.7025 18.4265 25.9743C18.4265 26.2461 18.6468 26.4664 18.9186 26.4664H19.9213V31.3877C19.9213 31.6595 20.1416 31.8798 20.4134 31.8798C20.6852 31.8798 20.9055 31.6595 20.9055 31.3877V26.4664H21.9082C22.18 26.4664 22.4003 26.2461 22.4003 25.9743C22.4003 25.7025 22.18 25.4822 21.9082 25.4822H18.9186ZM35.9646 21.6436C37.1043 21.6436 38.0315 22.5708 38.0315 23.7105C38.0315 24.8502 37.1043 25.7775 35.9646 25.7775C34.8249 25.7775 33.8976 24.8502 33.8976 23.7105C33.8976 22.5708 34.8249 21.6436 35.9646 21.6436ZM34.8819 23.7105C34.8819 24.3075 35.3676 24.7932 35.9646 24.7932C36.5616 24.7932 37.0472 24.3075 37.0472 23.7105C37.0472 23.1135 36.5616 22.6279 35.9646 22.6279C35.3676 22.6279 34.8819 23.1135 34.8819 23.7105ZM34.5866 38.0806H29.7146C29.4325 38.0806 29.2048 37.8421 29.2235 37.5556C29.2406 37.294 29.4697 37.0964 29.7318 37.0964H34.0945V36.1121H30.4528C29.6374 36.1121 28.9764 35.4511 28.9764 34.6357V33.3562C28.9764 32.5408 29.6374 31.8798 30.4528 31.8798H34.0945V29.8129H27.3031C27.0313 29.8129 26.811 29.5926 26.811 29.3208V20.1672C26.811 19.8954 27.0313 19.6751 27.3031 19.6751H34.0945V18.3956C34.0945 18.1238 33.8742 17.9034 33.6024 17.9034H21.3976C21.1258 17.9034 20.9055 18.1238 20.9055 18.3956V23.2676H25.3346C25.6064 23.2676 25.8268 23.4879 25.8268 23.7597V33.6023C25.8268 33.8741 25.6064 34.0944 25.3346 34.0944H20.9055V37.0964H25.2682C25.5303 37.0964 25.7593 37.294 25.7765 37.5556C25.7952 37.8421 25.5675 38.0806 25.2854 38.0806H20.4134C20.1416 38.0806 19.9213 37.8603 19.9213 37.5885V34.0944H15.4921C15.2203 34.0944 15 33.8741 15 33.6023V23.7597C15 23.4879 15.2203 23.2676 15.4921 23.2676H19.9213V18.3956C19.9213 17.5802 20.5822 16.9192 21.3976 16.9192H33.6024C34.4178 16.9192 35.0787 17.5802 35.0787 18.3956V19.6751H39.5079C39.7797 19.6751 40 19.8954 40 20.1672V29.3208C40 29.5926 39.7797 29.8129 39.5079 29.8129H35.0787V31.8798H36.3583C37.1737 31.8798 37.8346 32.5408 37.8346 33.3562V34.6357C37.8346 35.4511 37.1737 36.1121 36.3583 36.1121H35.0787V37.5885C35.0787 37.8603 34.8584 38.0806 34.5866 38.0806ZM24.8425 24.2519H15.9843V33.1101H24.8425V24.2519ZM36.3583 32.8641H30.4528C30.1814 32.8641 29.9606 33.0848 29.9606 33.3562V34.6357C29.9606 34.9071 30.1814 35.1278 30.4528 35.1278H36.3583C36.6296 35.1278 36.8504 34.9071 36.8504 34.6357V33.3562C36.8504 33.0848 36.6296 32.8641 36.3583 32.8641ZM27.7953 28.8286H35.4181L30.8749 24.5817C30.3095 24.0533 29.4238 24.0532 28.8585 24.5817L27.7953 25.5756V28.8286ZM39.0157 20.6593H27.7953V24.2283L28.1863 23.8627C29.1286 22.9819 30.6048 22.982 31.547 23.8627L36.8594 28.8286H39.0157V20.6593Z" fill="#0F68EE"/>
</g>
<defs>
<clipPath id="clip0_1829_51577">
<rect width="25" height="25" fill="white" transform="translate(15 15)"/>
</clipPath>
</defs>
</svg>
