<svg width="34" height="34" viewBox="0 0 34 34" fill="none" xmlns="http://www.w3.org/2000/svg">
<rect opacity="0.1" width="34" height="34" rx="17" fill="#0A9437"/>
<g clip-path="url(#clip0_2375_33285)">
<path d="M16.9995 9C15.826 9 14.8711 9.95488 14.8711 11.1284V11.7706H15.972V11.1284C15.972 10.5618 16.4331 10.1009 16.9995 10.1009C17.5661 10.1009 18.0272 10.5618 18.0272 11.1284V11.7706H19.1282V11.1284C19.1282 9.95488 18.1731 9 16.9995 9Z" fill="#0A9437"/>
<path d="M18.5046 22.4131C18.5046 23.2327 17.8378 23.8995 17.0184 23.8995H16.9817C16.1623 23.8995 15.4954 23.2327 15.4954 22.4131H14.3945C14.3945 23.8399 15.5551 25.0004 16.9817 25.0004H17.0184C18.445 25.0004 19.6055 23.8399 19.6055 22.4131H18.5046Z" fill="#0A9437"/>
<path d="M24.1235 22.2074L22.5597 19.7745V16.6518C22.5597 13.5558 20.0655 11.0371 17 11.0371C13.9344 11.0371 11.4404 13.5558 11.4404 16.6518V19.7745L9.87657 22.2072C9.76757 22.3765 9.75989 22.592 9.85639 22.7687C9.95289 22.9454 10.138 23.0555 10.3395 23.0555H23.6606C23.8621 23.0555 24.0472 22.9454 24.1435 22.7689C24.2402 22.5922 24.2325 22.3768 24.1235 22.2074ZM11.3477 21.9545L12.4538 20.2338C12.5109 20.1452 12.5413 20.0417 12.5413 19.9362V16.6518C12.5413 14.163 14.5415 12.138 17 12.138C19.4588 12.138 21.4588 14.163 21.4588 16.6518V19.9362C21.4588 20.0417 21.489 20.145 21.5461 20.2338L22.6522 21.9545H11.3477Z" fill="#0A9437"/>
<path d="M15.5 17L17 18.5L19.5 16" stroke="#0A9437"/>
</g>
<defs>
<clipPath id="clip0_2375_33285">
<rect width="16" height="16" fill="white" transform="translate(9 9)"/>
</clipPath>
</defs>
</svg>
