<svg width="16" height="16" viewBox="0 0 16 16" fill="none" xmlns="http://www.w3.org/2000/svg">
<g clip-path="url(#clip0_1829_53729)">
<path d="M7.99953 0C6.82597 0 5.87109 0.954875 5.87109 2.12844V2.77063H6.972V2.12844C6.972 1.56184 7.43309 1.10091 7.99953 1.10091C8.56612 1.10091 9.02725 1.56181 9.02725 2.12844V2.77063H10.1282V2.12844C10.1282 0.954875 9.17313 0 7.99953 0Z" fill="#0A9437"/>
<path d="M9.50463 13.4131C9.50463 14.2327 8.83784 14.8995 8.01838 14.8995H7.98169C7.16225 14.8995 6.49544 14.2327 6.49544 13.4131H5.39453C5.39453 14.8399 6.55509 16.0004 7.98169 16.0004H8.01838C9.44497 16.0004 10.6055 14.8399 10.6055 13.4131H9.50463Z" fill="#0A9437"/>
<path d="M15.1235 13.2074L13.5597 10.7745V7.6518C13.5597 4.55583 11.0655 2.03711 8.00004 2.03711C4.93435 2.03711 2.44042 4.55583 2.44042 7.6518V10.7745L0.876573 13.2072C0.767573 13.3765 0.759886 13.592 0.856386 13.7687C0.952886 13.9454 1.13804 14.0555 1.33951 14.0555H14.6606C14.8621 14.0555 15.0472 13.9454 15.1435 13.7689C15.2402 13.5922 15.2325 13.3768 15.1235 13.2074ZM2.34773 12.9545L3.45379 11.2338C3.51085 11.1452 3.54132 11.0417 3.54132 10.9362V7.6518C3.54132 5.16298 5.54151 3.13805 8.00004 3.13805C10.4588 3.13805 12.4588 5.16301 12.4588 7.6518V10.9362C12.4588 11.0417 12.489 11.145 12.5461 11.2338L13.6522 12.9545H2.34773Z" fill="#0A9437"/>
<line x1="6" y1="7.90039" x2="10" y2="7.90039" stroke="#0A9437"/>
<line x1="8.09961" y1="10" x2="8.09961" y2="6" stroke="#0A9437"/>
</g>
<defs>
<clipPath id="clip0_1829_53729">
<rect width="16" height="16" fill="white"/>
</clipPath>
</defs>
</svg>
