<svg width="16" height="13" viewBox="0 0 16 13" fill="none" xmlns="http://www.w3.org/2000/svg">
<path d="M15.1235 11.2074L13.5597 8.77455V5.6518C13.5597 2.55583 11.0655 0.0371094 8.00004 0.0371094C4.93435 0.0371094 2.44042 2.55583 2.44042 5.6518V8.77455L0.876573 11.2072C0.767573 11.3765 0.759886 11.592 0.856386 11.7687C0.952886 11.9454 1.13804 12.0555 1.33951 12.0555H14.6606C14.8621 12.0555 15.0472 11.9454 15.1435 11.7689C15.2402 11.5922 15.2325 11.3768 15.1235 11.2074ZM2.34773 10.9545L3.45379 9.23383C3.51085 9.1452 3.54132 9.0417 3.54132 8.9362V5.6518C3.54132 3.16298 5.54151 1.13805 8.00004 1.13805C10.4588 1.13805 12.4588 3.16301 12.4588 5.6518V8.9362C12.4588 9.0417 12.489 9.14501 12.5461 9.23383L13.6522 10.9545H2.34773Z" fill="#0A9437"/>
<path d="M6.5 6L8 7.5L10.5 5" stroke="#0A9437"/>
</svg>
