<svg width="14" height="9" viewBox="0 0 14 9" fill="none" xmlns="http://www.w3.org/2000/svg">
<path d="M6.98717 0C4.31722 0 1.89598 1.46075 0.109342 3.8334C-0.0364473 4.02779 -0.0364473 4.29936 0.109342 4.49374C1.89598 6.86925 4.31722 8.33 6.98717 8.33C9.65711 8.33 12.0784 6.86925 13.865 4.4966C14.0108 4.30221 14.0108 4.03065 13.865 3.83626C12.0784 1.46075 9.65711 0 6.98717 0ZM7.17869 7.09794C5.40635 7.20942 3.94274 5.74867 4.05423 3.97347C4.1457 2.50986 5.33203 1.32354 6.79564 1.23206C8.56798 1.12058 10.0316 2.58133 9.9201 4.35653C9.82577 5.81728 8.63945 7.0036 7.17869 7.09794ZM7.09008 5.74295C6.1353 5.80299 5.34632 5.01687 5.40921 4.06209C5.45781 3.27311 6.09814 2.63564 6.88712 2.58419C7.84189 2.52416 8.63087 3.31027 8.56798 4.26505C8.51653 5.05689 7.87619 5.69436 7.09008 5.74295Z" fill="#696969"/>
</svg>
