<svg width="13" height="16" viewBox="0 0 13 16" fill="none" xmlns="http://www.w3.org/2000/svg">
<path d="M10.6667 5.33333H9.90476V3.80952C9.90476 1.70667 8.1981 0 6.09524 0C3.99238 0 2.28571 1.70667 2.28571 3.80952V5.33333H1.52381C0.685714 5.33333 0 6.01905 0 6.85714V14.4762C0 15.3143 0.685714 16 1.52381 16H10.6667C11.5048 16 12.1905 15.3143 12.1905 14.4762V6.85714C12.1905 6.01905 11.5048 5.33333 10.6667 5.33333ZM3.80952 3.80952C3.80952 2.54476 4.83048 1.52381 6.09524 1.52381C7.36 1.52381 8.38095 2.54476 8.38095 3.80952V5.33333H3.80952V3.80952ZM10.6667 14.4762H1.52381V6.85714H10.6667V14.4762ZM6.09524 12.1905C6.93333 12.1905 7.61905 11.5048 7.61905 10.6667C7.61905 9.82857 6.93333 9.14286 6.09524 9.14286C5.25714 9.14286 4.57143 9.82857 4.57143 10.6667C4.57143 11.5048 5.25714 12.1905 6.09524 12.1905Z" fill="#696969"/>
</svg>
