<svg width="18" height="18" viewBox="0 0 18 18" fill="none" xmlns="http://www.w3.org/2000/svg">
<path d="M11.9688 8.64798L8.23119 5.931C8.09403 5.83156 7.91194 5.81659 7.76159 5.89386C7.61005 5.97053 7.51541 6.12626 7.51541 6.29458V11.7267C7.51541 11.8969 7.61005 12.052 7.76159 12.1287C7.82568 12.161 7.89576 12.1772 7.96644 12.1772C8.05869 12.1772 8.15213 12.1478 8.23119 12.0897L11.9688 9.37514C12.0868 9.28829 12.1557 9.15412 12.1557 9.01156C12.1563 8.8666 12.0856 8.73303 11.9688 8.64798Z" fill="#0A9437"/>
<path d="M9.0003 0.000976562C4.02875 0.000976562 0 4.02973 0 9.00128C0 13.971 4.02875 17.9986 9.0003 17.9986C13.9707 17.9986 18 13.9704 18 9.00128C18.0006 4.02973 13.9707 0.000976562 9.0003 0.000976562ZM9.0003 16.4969C4.86014 16.4969 1.50344 13.142 1.50344 9.00128C1.50344 4.86231 4.86014 1.50322 9.0003 1.50322C13.1399 1.50322 16.496 4.86171 16.496 9.00128C16.4966 13.142 13.1399 16.4969 9.0003 16.4969Z" fill="#0A9437"/>
</svg>
