<svg width="16" height="14" viewBox="0 0 16 14" fill="none" xmlns="http://www.w3.org/2000/svg">
<path d="M15.7659 7.55594C15.921 7.4008 16 7.19773 16 6.9975C16 6.79444 15.921 6.59137 15.7659 6.43907L10.3451 1.01831C10.0377 0.710871 9.5357 0.710871 9.22262 1.01831L8.4724 1.76853C8.16496 2.07597 8.16496 2.578 8.4724 2.89104L11.2618 5.67757L0.792543 5.67757C0.355367 5.67757 -3.13722e-07 6.03578 -2.94738e-07 6.47008L-2.48506e-07 7.52774C-2.29398e-07 7.96487 0.352528 8.32028 0.792543 8.32028L11.2646 8.32028L8.47521 11.1096C8.1678 11.417 8.1678 11.9219 8.47521 12.2321L9.22542 12.9823C9.53283 13.2897 10.0377 13.2897 10.3479 12.9823L15.7659 7.55594Z" fill="#0A9437"/>
</svg>
