<svg width="16" height="14" viewBox="0 0 16 14" fill="none" xmlns="http://www.w3.org/2000/svg">
<path d="M15.4542 4.37544L11.8323 0.753598C11.5335 0.454754 11.2303 0.303223 10.9314 0.303223C10.5209 0.303223 10.0417 0.61541 10.0417 1.49529V2.72832C7.41028 2.843 4.95294 3.92216 3.07869 5.79632C1.09356 7.78132 0.0001875 10.4205 0 13.2278C0 13.4295 0.129 13.6087 0.320312 13.6725C0.369156 13.6888 0.419156 13.6966 0.468688 13.6966C0.613281 13.6966 0.75325 13.6295 0.8435 13.5094C3.05659 10.5636 6.38847 8.82269 10.0417 8.68525V9.89932C10.0417 10.7791 10.5209 11.0914 10.9314 11.0914H10.9315C11.2304 11.0914 11.5335 10.9398 11.8323 10.641L15.4541 7.01913C15.8062 6.66722 16 6.19779 16 5.69729C16 5.19688 15.8062 4.72741 15.4542 4.37544Z" fill="#0A9437"/>
</svg>
