<svg xmlns="http://www.w3.org/2000/svg" width="26.067" height="17.773" viewBox="0 0 26.067 17.773">
  <path id="show" d="M15.034,21.922a5.007,5.007,0,0,0,5.036-5.036,5.007,5.007,0,0,0-5.036-5.036A5.007,5.007,0,0,0,10,16.887a5.007,5.007,0,0,0,5.036,5.036Zm0-1.718a3.287,3.287,0,0,1-3.318-3.318,3.287,3.287,0,0,1,3.318-3.318,3.287,3.287,0,0,1,3.318,3.318A3.287,3.287,0,0,1,15.034,20.2Zm0,5.569a13.276,13.276,0,0,1-7.82-2.459A14.978,14.978,0,0,1,2,16.887a14.978,14.978,0,0,1,5.213-6.428A13.276,13.276,0,0,1,15.034,8a13.276,13.276,0,0,1,7.82,2.459,14.978,14.978,0,0,1,5.213,6.428,14.978,14.978,0,0,1-5.213,6.428A13.276,13.276,0,0,1,15.034,25.773ZM15.034,16.887Zm0,7.109a11.912,11.912,0,0,0,6.591-1.94A12.591,12.591,0,0,0,26.2,16.887a12.591,12.591,0,0,0-4.577-5.169,12.165,12.165,0,0,0-13.182,0,12.8,12.8,0,0,0-4.606,5.169,12.8,12.8,0,0,0,4.606,5.169A11.912,11.912,0,0,0,15.034,24Z" transform="translate(-2 -8)" fill="#696969"/>
</svg>
