<svg xmlns="http://www.w3.org/2000/svg" data-name="Layer 1" viewBox="0 0 190.08 88.2"><polygon fill="#004fa3" fill-rule="evenodd" points="114.33 39.07 91.15 39.07 91.15 46.63 98.9 46.63 98.9 62.8 106.45 62.8 106.45 46.63 114.33 46.63 114.33 39.07 114.33 39.07 114.33 39.07"/><polygon fill="#004fa3" fill-rule="evenodd" points="136.97 62.74 129.66 39.07 120.47 39.07 113.17 62.74 120.72 62.74 125.07 45.91 129.41 62.74 136.97 62.74 136.97 62.74 136.97 62.74"/><polygon fill="#004fa3" fill-rule="evenodd" points="160.1 39.07 136.93 39.07 136.93 46.63 144.68 46.63 144.68 62.8 152.23 62.8 152.23 46.63 160.1 46.63 160.1 39.07 160.1 39.07 160.1 39.07"/><polygon fill="#004fa3" fill-rule="evenodd" points="182.49 62.74 175.19 39.07 166 39.07 158.69 62.74 166.25 62.74 170.59 45.91 174.94 62.74 182.49 62.74 182.49 62.74 182.49 62.74"/><path fill="#004fa3" fill-rule="evenodd" d="M34.81,64.45c1.65-7,2.87-13.82,2.87-13.82a4.77,4.77,0,0,0-.61-3.79c-1.23-1.53-5-1-5-1s-5.88.07-11.87.79c-5.34.65-10.79,1.71-12.8,2.11a16,16,0,0,0-.64,4.42c0,10.53,10.53,19.47,25.15,22.66.77-2.78,1.92-7.09,2.92-11.35Z"/><path fill="#004fa3" fill-rule="evenodd" d="M45.68,60.05c-.07-8.48.16-16.38.16-16.38a1.89,1.89,0,0,1,.49-1.77,5.35,5.35,0,0,1,2.58-.58s7,.2,14.86,1.2C69.5,43.26,75.7,44.44,78.5,45c-5.15-9.21-18.77-15.79-34.78-15.79S14,35.85,8.89,45.11c2.45-.5,9.12-1.8,15.26-2.59C32,41.52,39,41.32,39,41.32a5.33,5.33,0,0,1,2.58.58,1.89,1.89,0,0,1,.49,1.77s.24,7.9.17,16.38c-.06,6.49-.26,13.3-.38,17,.61,0,1.23,0,1.85,0,.78,0,1.56,0,2.33,0-.12-3.69-.32-10.48-.37-17Z"/><path fill="#004fa3" fill-rule="evenodd" d="M67.75,46.61c-6-.72-11.88-.79-11.88-.79s-3.78-.51-5,1a4.72,4.72,0,0,0-.61,3.79s1.22,6.82,2.86,13.82c1,4.21,2.13,8.46,2.9,11.26C70.39,72.43,80.7,63.56,80.7,53.14A16,16,0,0,0,80,48.62c-2.32-.46-7.35-1.41-12.28-2Z"/></svg>