<svg width="16" height="16" viewBox="0 0 16 16" fill="none" xmlns="http://www.w3.org/2000/svg">
<path d="M0.340446 16C0.250602 16 0.1632 15.9645 0.0983807 15.8989C0.0129315 15.8125 -0.0200275 15.687 0.012077 15.5697L1.05224 11.7714C0.404655 10.6003 0.0632245 9.27563 0.0637127 7.93091C0.0655438 3.55774 3.62438 0 7.99718 0C10.1182 0.000854494 12.1111 0.827026 13.609 2.32605C15.1067 3.8252 15.9311 5.81799 15.9305 7.93726C15.9286 12.3105 12.3697 15.8685 7.99718 15.8685C7.99718 15.8685 7.99389 15.8685 7.99377 15.8685C6.71654 15.868 5.45031 15.5568 4.32287 14.9672L0.42675 15.9889C0.398185 15.9963 0.369133 16 0.340446 16Z" fill="#E5E5E5"/>
<path d="M0.340332 15.6594L1.41748 11.726C0.753052 10.5747 0.403564 9.2688 0.404053 7.93091C0.405762 3.74548 3.81177 0.340332 7.99707 0.340332C10.0281 0.341187 11.9344 1.13171 13.368 2.56653C14.8015 4.00134 15.5907 5.90857 15.59 7.93701C15.5881 12.1223 12.1816 15.528 7.99707 15.528C7.99683 15.528 7.99719 15.528 7.99707 15.528H7.99377C6.72302 15.5275 5.47449 15.2087 4.36548 14.6039L0.340332 15.6594ZM4.55188 13.2297L4.78247 13.3663C5.75122 13.9413 6.86194 14.2454 7.99463 14.246H7.99707C11.4753 14.246 14.3064 11.4154 14.3079 7.93652C14.3085 6.25061 13.6527 4.66528 12.4612 3.47278C11.2695 2.28027 9.68518 1.62317 7.99939 1.62244C4.51831 1.62244 1.68738 4.45264 1.68604 7.9314C1.68555 9.12354 2.01904 10.2844 2.65088 11.2891L2.80103 11.5278L2.16333 13.856L4.55188 13.2297Z" fill="white"/>
<path d="M0.604492 15.3943L1.64441 11.5968C1.00281 10.4855 0.665527 9.22461 0.665894 7.93323C0.66748 3.8927 3.95569 0.605469 7.99585 0.605469C9.95679 0.606323 11.7972 1.36951 13.1809 2.75464C14.5649 4.13977 15.3267 5.98096 15.3259 7.93896C15.3242 11.9796 12.0359 15.2672 7.99622 15.2672C7.99585 15.2672 7.99634 15.2672 7.99622 15.2672H7.99292C6.76624 15.2667 5.56079 14.9589 4.49023 14.3754L0.604492 15.3943Z" fill="#64B161"/>
<path d="M0.340332 15.6594L1.41748 11.726C0.753052 10.5747 0.403564 9.2688 0.404053 7.93091C0.405762 3.74548 3.81177 0.340332 7.99707 0.340332C10.0281 0.341187 11.9344 1.13171 13.368 2.56653C14.8015 4.00134 15.5907 5.90857 15.59 7.93701C15.5881 12.1223 12.1816 15.528 7.99707 15.528C7.99683 15.528 7.99719 15.528 7.99707 15.528H7.99377C6.72302 15.5275 5.47449 15.2087 4.36548 14.6039L0.340332 15.6594ZM4.55188 13.2297L4.78247 13.3663C5.75122 13.9413 6.86194 14.2454 7.99463 14.246H7.99707C11.4753 14.246 14.3064 11.4154 14.3079 7.93652C14.3085 6.25061 13.6527 4.66528 12.4612 3.47278C11.2695 2.28027 9.68518 1.62317 7.99939 1.62244C4.51831 1.62244 1.68738 4.45264 1.68604 7.9314C1.68555 9.12354 2.01904 10.2844 2.65088 11.2891L2.80103 11.5278L2.16333 13.856L4.55188 13.2297Z" fill="white"/>
<path fill-rule="evenodd" clip-rule="evenodd" d="M6.09924 4.75757C5.95715 4.44165 5.8075 4.4353 5.67224 4.42981C5.56165 4.42505 5.43506 4.4253 5.30872 4.4253C5.18225 4.4253 4.97668 4.4729 4.80286 4.66272C4.62891 4.85254 4.13867 5.31153 4.13867 6.245C4.13867 7.17859 4.8186 8.08057 4.91345 8.20728C5.0083 8.33386 6.22595 10.3107 8.1543 11.0712C9.75696 11.7032 10.083 11.5775 10.4309 11.5459C10.7788 11.5143 11.5533 11.0869 11.7114 10.6439C11.8696 10.2009 11.8696 9.82129 11.8221 9.74182C11.7747 9.66284 11.6482 9.61536 11.4585 9.52051C11.2688 9.42566 10.3361 8.96655 10.1621 8.90332C9.98816 8.83997 9.86169 8.80847 9.73523 8.99841C9.60864 9.18811 9.24536 9.61536 9.13464 9.74182C9.02393 9.86865 8.91321 9.88452 8.72351 9.78955C8.53381 9.69446 7.92273 9.49426 7.19788 8.8479C6.63391 8.34509 6.25305 7.724 6.14233 7.53406C6.03174 7.34436 6.1405 7.25061 6.22571 7.14697C6.37915 6.96033 6.6366 6.62476 6.69983 6.49829C6.76306 6.37158 6.73145 6.26087 6.68408 6.1659C6.6366 6.07105 6.26782 5.13281 6.09924 4.75757Z" fill="white"/>
</svg>
