<svg width="8" height="8" viewBox="0 0 8 8" fill="none" xmlns="http://www.w3.org/2000/svg">
<path fill-rule="evenodd" clip-rule="evenodd" d="M2.09924 0.75757C1.95715 0.441653 1.8075 0.435305 1.67224 0.429812C1.56165 0.425051 1.43506 0.425295 1.30872 0.425295C1.18225 0.425295 0.976685 0.472902 0.802856 0.662722C0.628906 0.852541 0.138672 1.31153 0.138672 2.245C0.138672 3.17859 0.818604 4.08057 0.913452 4.20728C1.0083 4.33386 2.22595 6.31067 4.1543 7.07117C5.75696 7.70325 6.08301 7.57752 6.43091 7.5459C6.77881 7.51428 7.55334 7.08692 7.71143 6.64392C7.86963 6.20093 7.86963 5.82129 7.82214 5.74182C7.77466 5.66284 7.64819 5.61536 7.4585 5.52051C7.2688 5.42566 6.33606 4.96655 6.16211 4.90332C5.98816 4.83997 5.86169 4.80847 5.73523 4.99841C5.60864 5.18811 5.24536 5.61536 5.13464 5.74182C5.02393 5.86865 4.91321 5.88452 4.72351 5.78955C4.53381 5.69446 3.92273 5.49426 3.19788 4.8479C2.63391 4.34509 2.25305 3.724 2.14233 3.53406C2.03174 3.34436 2.1405 3.25061 2.22571 3.14697C2.37915 2.96033 2.6366 2.62476 2.69983 2.49829C2.76306 2.37158 2.73145 2.26087 2.68408 2.1659C2.6366 2.07105 2.26782 1.13281 2.09924 0.75757Z" fill="white"/>
</svg>
